<?xml version="1.0" encoding="UTF-8"?>
<svg xmlns="http://www.w3.org/2000/svg" xmlns:xlink="http://www.w3.org/1999/xlink" width="22pt" height="18pt" viewBox="0 0 22 18" version="1.1">
<g id="surface1">
<path style=" stroke:none;fill-rule:nonzero;fill:rgb(0%,0%,0%);fill-opacity:1;" d="M 13.269531 8.03125 C 13.332031 8.375 13.378906 8.714844 13.378906 9.15625 C 13.378906 13.015625 10.847656 15.75 7.039062 15.75 C 3.394531 15.75 0.441406 12.730469 0.441406 9 C 0.441406 5.269531 3.394531 2.25 7.039062 2.25 C 8.824219 2.25 10.308594 2.914062 11.460938 4.019531 L 9.667969 5.777344 C 9.183594 5.296875 8.328125 4.738281 7.039062 4.738281 C 4.789062 4.738281 2.953125 6.640625 2.953125 9 C 2.953125 11.359375 4.789062 13.261719 7.039062 13.261719 C 9.652344 13.261719 10.632812 11.339844 10.785156 10.355469 L 7.039062 10.355469 L 7.039062 8.03125 Z M 19.644531 8.257812 L 19.644531 6.300781 L 17.71875 6.300781 L 17.71875 8.257812 L 15.804688 8.257812 L 15.804688 10.226562 L 17.71875 10.226562 L 17.71875 12.1875 L 19.644531 12.1875 L 19.644531 10.226562 L 21.558594 10.226562 L 21.558594 8.257812 Z M 19.644531 8.257812 "/>
</g>
</svg>
