<?xml version="1.0" encoding="UTF-8"?>
<svg xmlns="http://www.w3.org/2000/svg" xmlns:xlink="http://www.w3.org/1999/xlink" width="18pt" height="20pt" viewBox="0 0 18 20" version="1.1">
<g id="surface1">
<path style=" stroke:none;fill-rule:nonzero;fill:rgb(0%,0%,0%);fill-opacity:1;" d="M 9.003906 5.507812 C 6.449219 5.507812 4.386719 7.511719 4.386719 9.996094 C 4.386719 12.480469 6.449219 14.484375 9.003906 14.484375 C 11.558594 14.484375 13.621094 12.480469 13.621094 9.996094 C 13.621094 7.511719 11.558594 5.507812 9.003906 5.507812 Z M 9.003906 12.914062 C 7.351562 12.914062 6.003906 11.605469 6.003906 9.996094 C 6.003906 8.386719 7.347656 7.078125 9.003906 7.078125 C 10.660156 7.078125 12.003906 8.386719 12.003906 9.996094 C 12.003906 11.605469 10.65625 12.914062 9.003906 12.914062 Z M 14.886719 5.324219 C 14.886719 5.90625 14.402344 6.371094 13.808594 6.371094 C 13.210938 6.371094 12.734375 5.902344 12.734375 5.324219 C 12.734375 4.746094 13.214844 4.277344 13.808594 4.277344 C 14.402344 4.277344 14.886719 4.746094 14.886719 5.324219 Z M 17.945312 6.386719 C 17.875 4.984375 17.546875 3.742188 16.488281 2.71875 C 15.4375 1.695312 14.160156 1.375 12.714844 1.304688 C 11.230469 1.222656 6.773438 1.222656 5.289062 1.304688 C 3.847656 1.371094 2.570312 1.691406 1.515625 2.714844 C 0.457031 3.738281 0.132812 4.980469 0.0585938 6.382812 C -0.0234375 7.828125 -0.0234375 12.160156 0.0585938 13.605469 C 0.128906 15.007812 0.457031 16.25 1.515625 17.273438 C 2.570312 18.296875 3.84375 18.617188 5.289062 18.6875 C 6.773438 18.769531 11.230469 18.769531 12.714844 18.6875 C 14.160156 18.621094 15.4375 18.300781 16.488281 17.273438 C 17.542969 16.25 17.871094 15.007812 17.945312 13.605469 C 18.027344 12.160156 18.027344 7.832031 17.945312 6.386719 Z M 16.023438 15.15625 C 15.710938 15.921875 15.101562 16.511719 14.3125 16.820312 C 13.125 17.277344 10.3125 17.171875 9.003906 17.171875 C 7.695312 17.171875 4.878906 17.273438 3.695312 16.820312 C 2.910156 16.515625 2.300781 15.925781 1.984375 15.15625 C 1.515625 14.003906 1.625 11.269531 1.625 9.996094 C 1.625 8.722656 1.519531 5.984375 1.984375 4.835938 C 2.296875 4.070312 2.90625 3.480469 3.695312 3.171875 C 4.882812 2.714844 7.695312 2.820312 9.003906 2.820312 C 10.3125 2.820312 13.128906 2.71875 14.3125 3.171875 C 15.097656 3.476562 15.707031 4.066406 16.023438 4.835938 C 16.492188 5.988281 16.386719 8.722656 16.386719 9.996094 C 16.386719 11.269531 16.492188 14.007812 16.023438 15.15625 Z M 16.023438 15.15625 "/>
</g>
</svg>
